<svg width="879" height="235" viewBox="0 0 879 235" fill="none" xmlns="http://www.w3.org/2000/svg">
<path d="M470 56L402 160.5C401.433 162.745 402.5 165 403.5 166C404.5 167 407.878 169.246 411.5 170.5C414.551 170.255 416.198 169.628 419 167.5L437 140.5H523.5L544.5 169.5C547.315 170.297 548.937 170.586 552 170.5C554.922 169.135 556.442 168.173 559 166C560.038 163.994 560.423 162.809 560.5 160.5L501.5 76C499.325 75.1499 498.12 74.9239 496 75C492.194 76.6565 490.416 77.842 488 80.5C486.722 82.7231 486.364 84.0311 486.5 86.5L512 123.5H448L484.5 67.5C485.296 64.9617 485.475 63.5383 484.5 61L476 56C473.798 55.3402 472.499 55.2693 470 56Z" fill="#E02424"/>
<path fill-rule="evenodd" clip-rule="evenodd" d="M470.317 56.4289L402.466 160.701C401.995 162.714 402.961 164.754 403.854 165.646C404.31 166.102 405.362 166.889 406.772 167.725C408.146 168.54 409.827 169.382 411.565 169.993C413.011 169.871 414.104 169.66 415.159 169.242C416.225 168.819 417.279 168.174 418.631 167.152L436.732 140H523.755L544.803 169.066C547.446 169.807 549.008 170.076 551.882 170.003C554.674 168.694 556.151 167.759 558.601 165.683C559.089 164.734 559.413 163.993 559.629 163.228C559.839 162.482 559.951 161.694 559.994 160.649L501.177 76.411C499.18 75.6404 498.051 75.4345 496.112 75.4965C492.436 77.1025 490.728 78.2493 488.407 80.7961C487.793 81.8675 487.417 82.6932 487.204 83.531C486.997 84.3451 486.938 85.1981 486.992 86.3328L512.952 124H447.077L484.043 67.2848C484.426 66.0577 484.644 65.1395 484.664 64.2387C484.684 63.3718 484.521 62.4895 484.095 61.3416L475.799 56.4617C474.746 56.1491 473.937 55.9866 473.107 55.9785C472.303 55.9707 471.452 56.1076 470.317 56.4289ZM473.116 54.9786C474.096 54.9881 475.022 55.1851 476.143 55.521L476.201 55.5384L484.904 60.6576L484.967 60.8206C485.47 62.131 485.688 63.1877 485.664 64.2613C485.64 65.3254 485.378 66.3715 484.977 67.6496L484.956 67.7153L448.923 123H511.048L486.008 86.6679L486.001 86.5274C485.931 85.2636 485.986 84.2644 486.235 83.2846C486.484 82.3076 486.918 81.3796 487.566 80.2508L487.594 80.2038L487.63 80.1637C490.103 77.4428 491.944 76.2199 495.8 74.5415L495.887 74.5037L495.982 74.5003C498.178 74.4215 499.452 74.6625 501.682 75.5343L501.823 75.5895L561.005 160.35L561 160.517C560.96 161.697 560.841 162.613 560.591 163.499C560.342 164.383 559.969 165.215 559.444 166.23L559.399 166.317L559.324 166.381C556.732 168.583 555.173 169.569 552.212 170.953L552.118 170.997L552.014 171C548.89 171.087 547.216 170.788 544.364 169.981L544.197 169.934L523.245 141H437.268L419.369 167.847L419.302 167.898C417.884 168.975 416.731 169.694 415.528 170.171C414.321 170.649 413.093 170.874 411.54 170.998L411.435 171.007L411.336 170.972C409.486 170.332 407.706 169.441 406.262 168.585C404.827 167.734 403.69 166.897 403.146 166.354C402.051 165.258 400.896 162.829 401.515 160.378L401.536 160.297L469.682 55.572L469.86 55.5201C471.135 55.1472 472.137 54.969 473.116 54.9786Z" fill="#E02424"/>
<path d="M157 55H145.5C143.076 56.1176 141.985 57 140.5 59L141 146C145 159.5 155 165.5 174.778 168.5H266.5C268.383 167.506 269.155 166.722 269.5 164.5V156.5C269.05 154.097 268.265 153.06 265.5 152L174 151.5C169 151 161.5 147 161.5 141.782V60C160.48 57.3186 159.43 56.2873 157 55Z" fill="#EE1D23"/>
<path fill-rule="evenodd" clip-rule="evenodd" d="M145.39 54.5H157.124L157.234 54.5582C158.468 55.212 159.396 55.8232 160.146 56.6386C160.899 57.4565 161.445 58.4486 161.967 59.8222L162 59.9081V141.782C162 144.143 163.707 146.317 166.158 147.998C168.585 149.663 171.619 150.754 174.027 151L265.594 151.501L265.679 151.533C267.089 152.073 268.068 152.634 268.746 153.419C269.43 154.21 269.76 155.173 269.991 156.408L270 156.454V164.539L269.994 164.577C269.814 165.733 269.514 166.579 268.969 167.27C268.43 167.953 267.689 168.437 266.733 168.942L266.624 169H174.74L174.703 168.994C164.787 167.49 157.26 165.227 151.699 161.607C146.118 157.973 142.551 152.995 140.521 146.142L140.5 146.074L139.999 58.8359L140.099 58.7019C140.855 57.6829 141.528 56.9258 142.335 56.279C143.141 55.6331 144.06 55.1133 145.291 54.5459L145.39 54.5ZM145.61 55.5C144.469 56.0312 143.658 56.5006 142.961 57.0592C142.278 57.6067 141.687 58.2545 141.001 59.165L141.5 145.926C143.472 152.538 146.9 157.289 152.245 160.768C157.622 164.269 164.972 166.504 174.816 168H266.375C267.24 167.536 267.796 167.143 268.184 166.651C268.577 166.152 268.834 165.504 269 164.461V156.547C268.782 155.405 268.496 154.659 267.99 154.073C267.483 153.487 266.709 153.007 265.405 152.499L173.974 152L173.95 151.998C171.361 151.739 168.157 150.582 165.592 148.823C163.043 147.074 161 144.639 161 141.782V60.0925C160.513 58.8322 160.032 57.9906 159.41 57.3158C158.793 56.6447 158.011 56.1092 156.875 55.5H145.61Z" fill="#E02424"/>
<path d="M76 59V67.5L72.5 72L35.5 73C27.3012 74.1771 21 79.5 21 83V104.5H100L103 109.5V118L99 121H21L20.5 140.5C21 146.5 31 151 37.5 151.5L125 152C126.5 152 127.446 154.132 128 157V165C128 166.5 125.5 168.5 124 168.5L27 167C10.7721 162.775 2 155.5 1 145.5V78.5C5.5 66.5 10.5 59.5 33 56L72.5 55.5L76 59Z" fill="#EE1D23"/>
<path fill-rule="evenodd" clip-rule="evenodd" d="M72.7045 54.9974L76.5 58.7929V67.6716L72.7496 72.4934L35.5426 73.499C31.5382 74.079 28.0012 75.6684 25.472 77.5315C24.2044 78.4653 23.2015 79.4592 22.52 80.4165C21.8336 81.3805 21.5 82.2684 21.5 83V104H100.283L103.5 109.362V118.25L99.1667 121.5H21.4873L21.0005 140.485C21.2423 143.215 23.6654 145.715 26.9989 147.629C30.3071 149.528 34.3518 150.753 37.5208 151L125 151.5C125.001 151.5 125.001 151.5 125.002 151.5C126.027 151.501 126.769 152.236 127.292 153.182C127.823 154.142 128.21 155.452 128.491 156.905L128.5 156.952V165C128.5 165.508 128.292 166.009 128.006 166.451C127.716 166.899 127.321 167.326 126.885 167.694C126.449 168.063 125.96 168.385 125.472 168.616C124.99 168.844 124.476 169 124 169H123.992L26.9322 167.499L26.874 167.484C10.5945 163.246 1.5354 155.879 0.502481 145.55L0.5 145.525V78.4093L0.531835 78.3244C2.79024 72.302 5.20435 67.4459 9.9383 63.6716C14.663 59.9045 21.639 57.2613 32.9231 55.5059L32.9582 55.5005L72.7045 54.9974ZM33.0418 56.4995C21.8469 58.2442 15.0823 60.8492 10.5617 64.4535C6.06703 68.037 3.73192 72.6541 1.5 78.5908V145.475C2.47785 155.122 10.9432 162.291 27.0679 166.501L124 168C124.001 168 124.002 168 124.003 168C124.277 167.999 124.637 167.905 125.044 167.712C125.446 167.522 125.863 167.249 126.24 166.931C126.617 166.612 126.94 166.257 127.166 165.908C127.396 165.553 127.5 165.242 127.5 165V157.048C127.228 155.654 126.868 154.481 126.417 153.667C125.955 152.83 125.474 152.5 125 152.5L124.997 152.5L37.4794 152L37.4617 151.999C34.1333 151.743 29.9368 150.468 26.5011 148.496C23.0953 146.541 20.2734 143.801 20.0017 140.542L19.9995 140.514L20.5127 120.5H98.8333L102.5 117.75V109.639L99.7169 105H20.5V83C20.5 81.9816 20.9541 80.8916 21.7054 79.8365C22.4615 78.7745 23.5464 77.7079 24.8789 76.7263C27.5441 74.7631 31.2463 73.1056 35.4289 72.5051L35.4576 72.501L72.2504 71.5066L75.5 67.3284V59.2071L72.2955 56.0026L33.0418 56.4995Z" fill="#E02424"/>
<path d="M302.5 53C302.5 63 297.5 63 290.5 63C284 63 277.5 63 277.5 53C277.5 43 287 43 290.5 43C294 43 302.5 43 302.5 53Z" fill="#EE1D23"/>
<path fill-rule="evenodd" clip-rule="evenodd" d="M298.618 60.8881C300.286 59.9069 301.5 57.8665 301.5 53C301.5 50.643 301 48.9561 300.262 47.7367C299.525 46.5207 298.512 45.7038 297.374 45.1488C295.049 44.0144 292.277 44 290.5 44C288.729 44 285.686 44.0119 283.094 45.1638C281.819 45.7302 280.687 46.5593 279.869 47.7766C279.053 48.991 278.5 50.6636 278.5 53C278.5 55.3989 278.891 57.1061 279.51 58.3301C280.119 59.5356 280.976 60.3252 282.019 60.8602C284.197 61.9772 287.173 62 290.5 62C292.264 62 293.832 61.9989 295.221 61.8495C296.608 61.7004 297.729 61.4109 298.618 60.8881ZM290.5 63C297.5 63 302.5 63 302.5 53C302.5 43 294 43 290.5 43C287 43 277.5 43 277.5 53C277.5 63 284 63 290.5 63Z" fill="#E02424"/>
<path d="M279.5 67C287.702 68.2885 292.527 68.2637 301.5 67V166C293.065 170.356 288.262 170.746 279.5 166V67Z" fill="#EE1D23"/>
<path fill-rule="evenodd" clip-rule="evenodd" d="M279.5 67V166C288.262 170.746 293.065 170.356 301.5 166V67C301.161 67.0478 300.828 67.0937 300.5 67.138C292.516 68.2153 287.808 68.2397 280.5 67.153C280.172 67.1042 279.839 67.0532 279.5 67ZM280.5 68.1639V165.401C284.55 167.536 287.629 168.457 290.608 168.413C293.588 168.37 296.592 167.361 300.5 165.388V68.147C292.565 69.2107 287.788 69.2377 280.5 68.1639Z" fill="#E02424"/>
<path d="M378 169H368.5L362.5 166V72.5001H313.5L309.5 68.0001V59.0001L313 55.0001C313 55.0001 398.5 55.4401 404 55.0001C409.5 54.5601 424.258 51.2946 439 45.5001C465.73 33.8833 480.727 29.0224 507.5 24.0001H532L579.5 23.5001C577.264 21.2303 577.031 19.7403 577 17.0001C578.585 14.8313 579.676 14.5024 582.855 13.5437L583 13.5001C587.658 12.7989 589.989 12.9488 594 13.5001L599.5 15.5001C600.592 16.8079 600.556 17.584 600 19.0001C597.274 21.8835 594.768 23.3427 587.5 25.5001L602.5 31.5001C602.5 31.5001 630 33.5 634 33C638 32.5 656.855 27.5147 671.5 24C683.94 22.2658 690.821 22.1952 703 23C710.406 23.6927 714.475 24.3022 721.5 26C729.395 28.4501 733.433 29.9883 740 33L735.5 38C726.748 33.3857 721.809 30.7996 703.5 26.5C690.824 24.8737 683.833 25.1353 671.5 27C656.688 30.8541 648.435 32.9118 634 36C620.188 37.82 612.419 38.0303 598.5 36.5001C591.829 35.0455 588.102 33.6271 581.5 29.0001C580.215 29.6623 577.192 29.9282 563 30.0001C542.845 29.8969 531.57 29.6715 511.5 29.0001L468 41.0001C443.66 55.5888 423 69.5001 411 71.0001C399 72.5001 382.5 72.5001 382.5 72.5001V165L378 169Z" fill="#EE1D23"/>
<path fill-rule="evenodd" clip-rule="evenodd" d="M381.5 71.5001L382.546 71.5L382.685 71.4997C382.808 71.4993 382.99 71.4986 383.226 71.4971C383.699 71.4942 384.388 71.4884 385.252 71.4767C386.981 71.4533 389.412 71.4066 392.217 71.3131C397.832 71.1259 404.922 70.7521 410.876 70.0078C416.652 69.2858 424.654 65.5374 434.38 60.0378C440.566 56.5406 447.366 52.3851 454.648 47.9355C458.78 45.4103 463.068 42.7904 467.486 40.1423L467.603 40.0723L511.381 27.9955L511.533 28.0006C531.593 28.6717 542.858 28.897 563 29C570.095 28.9641 574.372 28.8796 577.031 28.7232C579.741 28.5638 580.613 28.3323 581.042 28.1111L581.579 27.8343L582.074 28.1812C588.543 32.7151 592.144 34.0875 598.662 35.5118C612.448 37.0247 620.132 36.8172 633.83 35.0138C648.221 31.9344 656.458 29.8808 671.248 26.0322L671.299 26.0191L671.35 26.0112C683.764 24.1344 690.848 23.8686 703.627 25.5081L703.678 25.5147L703.729 25.5265C721.644 29.7337 726.874 32.3265 735.278 36.7524L738.344 33.3449C732.533 30.7193 728.564 29.2397 721.234 26.9645C714.287 25.2867 710.269 24.6844 702.921 23.9969C690.822 23.1978 684.012 23.2676 671.686 24.9837C666.557 26.2151 660.917 27.6253 655.576 28.9606C653.309 29.5274 651.096 30.0807 648.999 30.6011C641.994 32.3395 636.2 33.7328 634.124 33.9923C633.025 34.1297 630.461 34.0918 627.353 33.9759C624.202 33.8583 620.381 33.6547 616.691 33.4358C612.999 33.2168 609.434 32.9822 606.791 32.8024C605.47 32.7125 604.379 32.6363 603.619 32.5825C603.239 32.5556 602.941 32.5344 602.738 32.5198L602.429 32.4975C602.429 32.4975 602.427 32.4974 602.5 31.5001C602.5 31.5001 630 33.5 634 33C636.594 32.6757 645.438 30.4646 655.328 27.9917C660.687 26.6519 666.354 25.2351 671.5 24C683.94 22.2658 690.821 22.1952 703 23C710.406 23.6927 714.475 24.3022 721.5 26C729.006 28.3293 733.025 29.8344 739.046 32.5649C739.358 32.7066 739.676 32.8515 740 33L735.5 38C726.748 33.3857 721.809 30.7996 703.5 26.5C690.824 24.8737 683.833 25.1353 671.5 27C656.688 30.8541 648.435 32.9118 634 36C620.188 37.82 612.419 38.0303 598.5 36.5001C591.829 35.0455 588.102 33.6271 581.5 29.0001C580.215 29.6623 577.192 29.9282 563 30.0001C542.845 29.8969 531.57 29.6715 511.5 29.0001L468 41.0001C463.601 43.6369 459.322 46.2517 455.192 48.775C436.475 60.2122 420.831 69.7712 411 71.0001C399 72.5001 382.5 72.5001 382.5 72.5001V165L378 169H368.5L362.5 166V72.5001H313.5L309.5 68.0001V59.0001L313 55.0001C313 55.0001 398.5 55.4401 404 55.0001C409.5 54.5601 424.258 51.2946 439 45.5001C465.73 33.8833 480.727 29.0224 507.5 24.0001H532L579.5 23.5001C579.159 23.1541 578.865 22.8263 578.611 22.5094C577.198 20.747 577.026 19.3226 577 17.0001C578.585 14.8313 579.676 14.5024 582.855 13.5437L583 13.5001C587.658 12.7989 589.989 12.9488 594 13.5001L599.5 15.5001C600.592 16.8079 600.556 17.584 600 19.0001C597.474 21.6714 595.138 23.1203 589.029 25.0345C588.543 25.1864 588.035 25.3414 587.5 25.5001L602.5 31.5001L602.427 32.4974L602.273 32.4862L584.457 25.3601L587.215 24.5414C590.831 23.4681 593.198 22.5863 594.985 21.6389C596.685 20.7372 597.884 19.7627 599.138 18.4555C599.349 17.8871 599.401 17.5708 599.374 17.3174C599.349 17.0935 599.249 16.8055 598.895 16.3442L593.759 14.4763C589.903 13.9493 587.673 13.8129 583.22 14.4783L583.144 14.5011C581.518 14.9914 580.565 15.2836 579.808 15.6962C579.17 16.0438 578.646 16.4939 578.005 17.3263C578.028 18.5068 578.108 19.3391 578.369 20.1027C578.647 20.9151 579.161 21.7308 580.212 22.7983L581.864 24.4752L532 25.0001L507.593 25.0001C480.962 30.0006 466.04 34.839 439.399 46.4172L439.382 46.4243L439.366 46.4307C424.565 52.2485 409.707 55.5467 404.08 55.9969C401.275 56.2212 378.455 56.2199 356.435 56.1651C345.403 56.1376 334.543 56.0963 326.441 56.0619C322.39 56.0447 319.029 56.0293 316.68 56.0181C315.505 56.0125 314.584 56.008 313.957 56.0049L313.452 56.0023L310.5 59.3758V67.6199L313.949 71.5001H363.5V165.382L368.736 168H377.62L381.5 164.551V71.5001Z" fill="#E02424"/>
<path d="M736 51C736 34 738.955 5.34964 741.5 1H800C802.286 2.09835 803.119 3.00122 804 5V11C802.824 12.5492 801.915 13.0468 800 13.5H753.5L753 27.5L809 28C822.113 32.0564 828.403 36.9683 837.5 51H736Z" fill="#4B4C4D"/>
<path d="M735 59C734.831 56.3778 734.876 55.0887 735.5 53.5H838.5C839.989 55.5907 840.403 56.7968 840.5 59H735Z" fill="#4B4C4D"/>
<path d="M790.5 25H774.5C774.546 22.5729 775.622 21.8114 778.5 21H786C789.249 21.4839 790.5 23 790.5 25Z" fill="#4B4C4D"/>
<path fill-rule="evenodd" clip-rule="evenodd" d="M741.213 0.5H800.114L800.217 0.549321C801.383 1.11 802.221 1.64003 802.883 2.31134C803.547 2.98502 804.005 3.77175 804.458 4.79832L804.5 4.89469V11.1683L804.398 11.3024C803.788 12.1064 803.223 12.6695 802.538 13.0877C801.857 13.5032 801.091 13.7556 800.115 13.9866L800.058 14H753.982L753.518 27.0046L809.078 27.5007L809.148 27.5223C815.739 29.5612 820.654 31.827 825.069 35.3693C829.478 38.907 833.359 43.6942 837.92 50.728L838.42 51.5H735.5V51C735.5 42.4772 736.24 31.046 737.298 21.2027C737.828 16.2804 738.437 11.7478 739.075 8.16917C739.393 6.38029 739.72 4.82353 740.049 3.57277C740.375 2.33524 740.713 1.35446 741.068 0.747487L741.213 0.5ZM741.801 1.5C741.555 2.0064 741.29 2.78688 741.016 3.82721C740.697 5.04223 740.375 6.5702 740.059 8.34459C739.427 11.8925 738.82 16.4005 738.293 21.3096C737.258 30.937 736.529 42.0783 736.501 50.5H836.577C832.259 43.927 828.571 39.4614 824.443 36.1493C820.176 32.7258 815.409 30.5111 808.922 28.4993L752.482 27.9954L753.018 13H799.941C800.85 12.7822 801.481 12.5614 802.017 12.2343C802.526 11.9232 802.978 11.4981 803.5 10.8298V5.10611C803.087 4.18561 802.697 3.5471 802.171 3.01335C801.641 2.47595 800.947 2.01732 799.885 1.5H741.801ZM778.431 20.5H786.037L786.074 20.5055C787.757 20.7561 788.994 21.2838 789.815 22.0706C790.648 22.8696 791 23.8873 791 25V25.5H773.991L774 24.9906C774.024 23.7006 774.327 22.7504 775.096 22.0294C775.828 21.3426 776.926 20.9242 778.364 20.5188L778.431 20.5ZM778.569 21.5C777.169 21.8986 776.308 22.2631 775.78 22.7588C775.359 23.1531 775.11 23.6706 775.028 24.5H789.969C789.882 23.8313 789.61 23.2598 789.122 22.7923C788.51 22.2047 787.508 21.7351 785.963 21.5H778.569ZM735.159 53H838.758L838.907 53.2099C839.664 54.2725 840.169 55.1391 840.492 56.0385C840.817 56.9413 840.95 57.8484 841 58.9779L841.023 59.5H734.531L734.501 59.0322C734.331 56.3962 734.368 55.0138 735.035 53.3172L735.159 53ZM735.847 54C735.409 55.2543 735.349 56.3868 735.47 58.5H839.97C839.907 57.6795 839.783 57.0201 839.551 56.3772C839.291 55.6538 838.886 54.9263 838.241 54H735.847Z" fill="black"/>
<path d="M573.5 166C574.847 167.952 576.053 168.61 578.5 169.5L621 169C622.512 166.448 623.774 165.535 626.5 164.5H640C643.594 165.484 644.92 166.655 647 169L671.5 168C690.416 164.234 697.209 159.667 701.5 146.5C702.839 137.853 702.276 132.384 701 122.5C693.936 109.852 687.27 105.791 670.5 104L606 102.5C600.933 100.309 598.42 98.5478 594.5 94.5V83C596.644 75.3581 601.622 74.0481 611.5 72.5H878V61.5C877.066 58.6376 876.244 57.2913 873.5 56H843V61.5H730.5V56L625.5 55.5C613 55.5 606.146 55.5795 594.5 58.5C582.407 62.8612 578.054 66.4867 574.5 75L573.5 97C579.239 111.092 585.601 115.546 601.5 118.5L671 120.5C677.007 122.261 678.894 124.346 681 129V145C677.049 148.812 674.008 150.429 666.5 152H578.5C575.942 152.499 574.77 153.07 573.5 155V166Z" fill="#EE1D23"/>
<path fill-rule="evenodd" clip-rule="evenodd" d="M594.646 58.9789C588.628 61.1507 584.589 63.122 581.616 65.5784C578.673 68.0111 576.743 70.9465 574.996 75.1112L574.005 96.9129C576.845 103.862 579.818 108.376 583.991 111.528C588.186 114.696 593.647 116.53 601.553 118.001L671.079 120.002L671.141 120.02C674.178 120.91 676.231 121.898 677.795 123.292C679.36 124.685 680.393 126.446 681.456 128.794L681.5 128.892V145.212L681.347 145.36C679.349 147.288 677.559 148.682 675.304 149.789C673.057 150.893 670.373 151.7 666.602 152.489L666.552 152.5H578.549C577.308 152.744 576.455 152.998 575.767 153.396C575.113 153.774 574.575 154.303 574 155.151V165.843C574.613 166.707 575.186 167.277 575.866 167.733C576.572 168.206 577.413 168.57 578.586 168.999L620.715 168.503C621.436 167.324 622.131 166.473 622.982 165.791C623.888 165.066 624.941 164.557 626.323 164.033L626.408 164H640.067L640.132 164.018C641.964 164.519 643.249 165.077 644.349 165.826C645.389 166.534 646.239 167.398 647.216 168.491L671.441 167.502C680.866 165.623 687.193 163.557 691.695 160.367C696.17 157.197 698.889 152.882 701.012 146.383C702.327 137.861 701.78 132.459 700.517 122.66C697.022 116.421 693.652 112.351 689.13 109.606C684.583 106.846 678.818 105.392 670.468 104.499L605.891 102.998L605.802 102.959C600.672 100.741 598.105 98.9411 594.141 94.8479L594 94.7024V82.9312L594.019 82.8649C595.122 78.934 596.978 76.5745 599.863 75.0244C602.698 73.501 606.499 72.7776 611.423 72.006L611.461 72H877.5V61.5798C877.046 60.1997 876.633 59.2379 876.034 58.4677C875.448 57.7131 874.656 57.1083 873.387 56.5H843.5V62H730V56.4976L625.5 56C625.5 56 625.499 56 625.499 56C613.017 56 606.214 56.0801 594.646 58.9789ZM594.378 58.015C606.087 55.0789 612.992 55 625.5 55H625.502L731 55.5024V61H842.5V55.5H873.612L873.713 55.5476C875.13 56.2144 876.095 56.9166 876.824 57.854C877.544 58.7814 878.005 59.903 878.475 61.3449L878.5 61.4205V73H611.539C606.604 73.7741 602.989 74.4799 600.336 75.9053C597.742 77.2994 596.043 79.3991 595 83.0692V94.2972C598.773 98.173 601.225 99.883 606.109 102.002L670.532 103.501L670.553 103.503C678.961 104.401 684.909 105.874 689.649 108.751C694.399 111.634 697.884 115.895 701.437 122.256L701.484 122.34L701.496 122.436C702.773 132.328 703.344 137.856 701.994 146.576L701.988 146.616L701.975 146.655C699.809 153.302 696.988 157.843 692.273 161.183C687.583 164.506 681.067 166.605 671.598 168.49L671.559 168.498L646.783 169.509L646.626 169.332C645.59 168.164 644.773 167.325 643.786 166.653C642.817 165.992 641.659 165.477 639.933 165H626.592C625.293 165.498 624.376 165.956 623.607 166.572C622.825 167.198 622.168 168.009 621.43 169.255L621.287 169.497L578.415 170.001L578.329 169.97C577.1 169.523 576.138 169.119 575.309 168.564C574.47 168.001 573.79 167.3 573.089 166.284L573 166.156V154.85L573.082 154.725C573.746 153.717 574.408 153.027 575.266 152.531C576.112 152.041 577.112 151.761 578.404 151.509L578.452 151.5H666.448C670.158 150.721 672.735 149.937 674.864 148.891C676.939 147.872 678.611 146.593 680.5 144.787V129.108C679.474 126.854 678.518 125.274 677.13 124.038C675.733 122.794 673.856 121.863 670.921 120.998L601.447 118.999L601.409 118.992C593.436 117.51 587.778 115.641 583.388 112.326C578.991 109.005 575.923 104.275 573.037 97.1886L572.996 97.0869L574.005 74.8889L574.039 74.8074C575.836 70.502 577.854 67.3904 580.979 64.8076C584.091 62.2358 588.269 60.2157 594.33 58.0297L594.354 58.0211L594.378 58.015Z" fill="#EE1D23"/>
<path d="M646.5 179C646.5 184.523 640.904 189 634 189C627.097 189 621.5 184.523 621.5 179C621.5 173.477 627.097 169 634 169C640.904 169 646.5 173.477 646.5 179Z" fill="#EE1D23"/>
<path d="M8.5 235V209C11.6506 199.611 15.4032 196.485 24.5 193.5H568V221.5C565.163 227.634 562.499 230.744 553.5 235H8.5Z" fill="#4B4C4D"/>
<path d="M51.3963 227V205.182H60.1321C61.7372 205.182 63.076 205.42 64.1484 205.896C65.2209 206.371 66.027 207.032 66.5668 207.877C67.1065 208.715 67.3764 209.681 67.3764 210.775C67.3764 211.627 67.206 212.376 66.8651 213.023C66.5241 213.662 66.0554 214.187 65.4588 214.599C64.8693 215.004 64.1946 215.292 63.4347 215.462V215.675C64.2656 215.711 65.0433 215.945 65.7678 216.379C66.4993 216.812 67.0923 217.419 67.5469 218.2C68.0014 218.974 68.2287 219.898 68.2287 220.97C68.2287 222.128 67.941 223.161 67.3658 224.07C66.7976 224.972 65.956 225.686 64.8409 226.212C63.7259 226.737 62.3516 227 60.718 227H51.3963ZM56.0092 223.229H59.7699C61.0554 223.229 61.9929 222.984 62.5824 222.494C63.1719 221.996 63.4666 221.336 63.4666 220.512C63.4666 219.908 63.321 219.376 63.0298 218.914C62.7386 218.452 62.3232 218.09 61.7834 217.827C61.2507 217.565 60.6151 217.433 59.8764 217.433H56.0092V223.229ZM56.0092 214.312H59.429C60.0611 214.312 60.6222 214.202 61.1122 213.982C61.6094 213.754 62 213.435 62.2841 213.023C62.5753 212.611 62.7209 212.117 62.7209 211.542C62.7209 210.754 62.4403 210.118 61.8793 209.635C61.3253 209.152 60.5369 208.911 59.5142 208.911H56.0092V214.312Z" fill="white"/>
<path d="M88.5769 205.182H93.1898V219.351C93.1898 220.942 92.8098 222.334 92.0499 223.527C91.297 224.72 90.2423 225.651 88.8858 226.318C87.5293 226.979 85.949 227.309 84.145 227.309C82.334 227.309 80.7502 226.979 79.3936 226.318C78.0371 225.651 76.9824 224.72 76.2296 223.527C75.4767 222.334 75.1003 220.942 75.1003 219.351V205.182H79.7132V218.957C79.7132 219.788 79.8943 220.526 80.2565 221.173C80.6259 221.819 81.1443 222.327 81.8119 222.696C82.4795 223.065 83.2573 223.25 84.145 223.25C85.0399 223.25 85.8176 223.065 86.4781 222.696C87.1457 222.327 87.6607 221.819 88.0229 221.173C88.3922 220.526 88.5769 219.788 88.5769 218.957V205.182Z" fill="white"/>
<path d="M100.855 227V205.182H105.468V214.184H114.832V205.182H119.435V227H114.832V217.987H105.468V227H100.855Z" fill="white"/>
<path d="M130.869 227H125.925L133.457 205.182H139.402L146.923 227H141.98L136.515 210.168H136.344L130.869 227ZM130.56 218.424H142.236V222.025H130.56V218.424Z" fill="white"/>
<path d="M153.419 227V205.182H162.027C163.675 205.182 165.081 205.477 166.246 206.066C167.418 206.648 168.309 207.476 168.92 208.548C169.538 209.614 169.847 210.867 169.847 212.309C169.847 213.758 169.534 215.004 168.909 216.048C168.284 217.085 167.379 217.881 166.193 218.435C165.014 218.989 163.586 219.266 161.91 219.266H156.147V215.558H161.164C162.045 215.558 162.777 215.437 163.359 215.196C163.941 214.955 164.375 214.592 164.659 214.109C164.95 213.626 165.095 213.026 165.095 212.309C165.095 211.585 164.95 210.974 164.659 210.477C164.375 209.979 163.938 209.603 163.348 209.347C162.766 209.085 162.031 208.953 161.143 208.953H158.032V227H153.419ZM165.202 217.071L170.625 227H165.532L160.227 217.071H165.202Z" fill="white"/>
<path d="M176.977 227V205.182H181.59V223.197H190.943V227H176.977Z" fill="white"/>
<path d="M202.481 205.182V227H197.868V205.182H202.481Z" fill="white"/>
<path d="M234.436 205.182H239.049V219.351C239.049 220.942 238.669 222.334 237.909 223.527C237.157 224.72 236.102 225.651 234.745 226.318C233.389 226.979 231.809 227.309 230.005 227.309C228.193 227.309 226.61 226.979 225.253 226.318C223.897 225.651 222.842 224.72 222.089 223.527C221.336 222.334 220.96 220.942 220.96 219.351V205.182H225.573V218.957C225.573 219.788 225.754 220.526 226.116 221.173C226.485 221.819 227.004 222.327 227.671 222.696C228.339 223.065 229.117 223.25 230.005 223.25C230.899 223.25 231.677 223.065 232.338 222.696C233.005 222.327 233.52 221.819 233.882 221.173C234.252 220.526 234.436 219.788 234.436 218.957V205.182ZM226.755 202.945C226.144 202.945 225.619 202.732 225.179 202.305C224.738 201.872 224.518 201.361 224.518 200.771C224.518 200.168 224.738 199.656 225.179 199.237C225.619 198.818 226.144 198.609 226.755 198.609C227.373 198.609 227.895 198.818 228.321 199.237C228.755 199.656 228.971 200.168 228.971 200.771C228.971 201.361 228.755 201.872 228.321 202.305C227.895 202.732 227.373 202.945 226.755 202.945ZM233.275 202.945C232.664 202.945 232.139 202.732 231.698 202.305C231.258 201.872 231.038 201.361 231.038 200.771C231.038 200.168 231.258 199.656 231.698 199.237C232.139 198.818 232.664 198.609 233.275 198.609C233.893 198.609 234.415 198.818 234.841 199.237C235.274 199.656 235.491 200.168 235.491 200.771C235.491 201.361 235.274 201.872 234.841 202.305C234.415 202.732 233.893 202.945 233.275 202.945Z" fill="white"/>
<path d="M245.884 208.985V205.182H263.803V208.985H257.123V227H252.563V208.985H245.884Z" fill="white"/>
<path d="M284.1 205.182H288.713V219.351C288.713 220.942 288.333 222.334 287.573 223.527C286.82 224.72 285.766 225.651 284.409 226.318C283.053 226.979 281.472 227.309 279.668 227.309C277.857 227.309 276.274 226.979 274.917 226.318C273.56 225.651 272.506 224.72 271.753 223.527C271 222.334 270.624 220.942 270.624 219.351V205.182H275.237V218.957C275.237 219.788 275.418 220.526 275.78 221.173C276.149 221.819 276.668 222.327 277.335 222.696C278.003 223.065 278.781 223.25 279.668 223.25C280.563 223.25 281.341 223.065 282.001 222.696C282.669 222.327 283.184 221.819 283.546 221.173C283.916 220.526 284.1 219.788 284.1 218.957V205.182ZM276.419 202.945C275.808 202.945 275.283 202.732 274.842 202.305C274.402 201.872 274.182 201.361 274.182 200.771C274.182 200.168 274.402 199.656 274.842 199.237C275.283 198.818 275.808 198.609 276.419 198.609C277.037 198.609 277.559 198.818 277.985 199.237C278.418 199.656 278.635 200.168 278.635 200.771C278.635 201.361 278.418 201.872 277.985 202.305C277.559 202.732 277.037 202.945 276.419 202.945ZM282.939 202.945C282.328 202.945 281.803 202.732 281.362 202.305C280.922 201.872 280.702 201.361 280.702 200.771C280.702 200.168 280.922 199.656 281.362 199.237C281.803 198.818 282.328 198.609 282.939 198.609C283.557 198.609 284.079 198.818 284.505 199.237C284.938 199.656 285.155 200.168 285.155 200.771C285.155 201.361 284.938 201.872 284.505 202.305C284.079 202.732 283.557 202.945 282.939 202.945Z" fill="white"/>
<path d="M307.192 205.182H312.881L318.889 219.841H319.145L325.153 205.182H330.842V227H326.368V212.799H326.187L320.54 226.893H317.494L311.847 212.746H311.666V227H307.192V205.182Z" fill="white"/>
<path d="M341.974 227H337.03L344.562 205.182H350.507L358.028 227H353.085L347.62 210.168H347.449L341.974 227ZM341.665 218.424H353.341V222.025H341.665V218.424Z" fill="white"/>
<path d="M364.224 227V205.182H368.837V214.802H369.125L376.976 205.182H382.506L374.409 214.951L382.601 227H377.083L371.106 218.03L368.837 220.8V227H364.224Z" fill="white"/>
<path d="M393.091 205.182V227H388.478V205.182H393.091ZM390.811 203.072C390.136 203.072 389.557 202.849 389.075 202.401C388.592 201.947 388.35 201.403 388.35 200.771C388.35 200.146 388.592 199.61 389.075 199.163C389.557 198.708 390.133 198.481 390.8 198.481C391.482 198.481 392.061 198.708 392.537 199.163C393.02 199.61 393.261 200.146 393.261 200.771C393.261 201.403 393.02 201.947 392.537 202.401C392.061 202.849 391.486 203.072 390.811 203.072Z" fill="white"/>
<path d="M418.705 205.182V227H414.721L405.229 213.268H405.069V227H400.456V205.182H404.504L413.922 218.903H414.114V205.182H418.705Z" fill="white"/>
<path d="M429.847 227H424.904L432.436 205.182H438.381L445.902 227H440.959L435.494 210.168H435.323L429.847 227ZM429.538 218.424H441.215V222.025H429.538V218.424Z" fill="white"/>
<path d="M452.098 227V205.182H456.711V223.197H466.065V227H452.098Z" fill="white"/>
<path d="M477.007 227H472.064L479.596 205.182H485.54L493.062 227H488.118L482.653 210.168H482.483L477.007 227ZM476.698 218.424H488.374V222.025H476.698V218.424Z" fill="white"/>
<path d="M499.258 227V205.182H507.866C509.513 205.182 510.92 205.477 512.084 206.066C513.256 206.648 514.148 207.476 514.758 208.548C515.376 209.614 515.685 210.867 515.685 212.309C515.685 213.758 515.373 215.004 514.748 216.048C514.123 217.085 513.217 217.881 512.031 218.435C510.852 218.989 509.425 219.266 507.748 219.266H501.985V215.558H507.003C507.883 215.558 508.615 215.437 509.197 215.196C509.78 214.955 510.213 214.592 510.497 214.109C510.788 213.626 510.934 213.026 510.934 212.309C510.934 211.585 510.788 210.974 510.497 210.477C510.213 209.979 509.776 209.603 509.187 209.347C508.604 209.085 507.869 208.953 506.981 208.953H503.871V227H499.258ZM511.04 217.071L516.463 227H511.371L506.065 217.071H511.04Z" fill="white"/>
<path d="M527.128 205.182V227H522.515V205.182H527.128Z" fill="white"/>
<path d="M741 89H747.5C748.275 89.3725 748.599 89.7067 749 90.5V91.5H748C745.687 91.3604 744.371 91.3675 742 91.5C740.812 91.9457 740.35 92.4632 740 94V99C740.477 99.9095 740.863 100.342 742.5 100.5C743.695 101.032 744.335 100.843 745.453 100.514L745.5 100.5V97C745.648 96.5147 745.912 96.3137 746.5 96H748.5V100.5C749.458 101.741 750.304 102.237 752 103H757.5C759.25 102.183 760.119 101.621 761 100V96C761.99 95.3185 762.54 95.2221 763.5 96V101H767C767.728 100.971 768.034 100.836 768.5 100.5C768.904 100.004 768.976 99.6593 769 99C769.013 98.8646 769.025 98.733 769.038 98.6048C769.217 96.7464 769.328 95.5901 769 93.5L768 92H767L766.5 91H763.5L762.5 92H760.5V90L761.5 89H767.5L770.384 91.8839C771.079 90.7694 771.883 90.0289 773.277 89H779.777C780.553 89.3725 780.876 89.7067 781.277 90.5V91.5H780.277C777.965 91.3604 776.648 91.3675 774.277 91.5C773.089 91.9457 772.628 92.4632 772.277 94V99C772.754 99.9095 773.14 100.342 774.777 100.5C775.972 101.032 776.613 100.843 777.73 100.514L777.777 100.5V97C777.925 96.5147 778.189 96.3137 778.777 96H780.777V100.5C781.735 101.741 782.581 102.237 784.277 103H789.777C791.527 102.183 792.396 101.621 793.277 100V96C794.267 95.3185 794.817 95.2221 795.777 96V101H799.277C800.005 100.971 800.312 100.836 800.777 100.5C801.181 100.004 801.253 99.6593 801.277 99C801.29 98.8646 801.303 98.733 801.315 98.6048C801.494 96.7464 801.605 95.5901 801.277 93.5L800.277 92H799.277L798.777 91H795.777L794.777 92H792.777V90L793.777 89H799.777L802.777 92V93.0408C802.779 93.0272 802.781 93.0136 802.783 93C803.677 91.1859 804.51 90.3361 806.359 89H813.001C813.793 89.3725 814.123 89.7067 814.533 90.5V91.5H813.511C811.148 91.3604 809.804 91.3675 807.381 91.5C806.413 91.8555 806.338 92.2567 806.166 93.1843C806.122 93.4197 806.072 93.689 806 94V99C806 100 807 101 808 101C809.321 101 809.677 100.89 810.411 100.664C810.571 100.615 810.748 100.56 810.957 100.5V97C811.108 96.5147 811.378 96.3137 811.979 96H814.022V100.5C815.001 101.741 815.865 102.237 817.598 103H823.218C825.006 102.183 825.894 101.621 826.794 100V96C827.805 95.3185 828.367 95.2221 829.348 96V101H832.924C833.668 100.971 833.981 100.836 834.457 100.5C834.869 100.004 834.943 99.6593 834.967 99C834.981 98.8646 834.993 98.733 835.006 98.6048C835.189 96.7463 835.303 95.5901 834.967 93.5L833.946 92H832.924L832.413 91H829.348L828.326 92H826.283V90L827.305 89H833.435L836.5 92V100C836.079 101.429 835.645 102.092 834.457 103C831.422 103.331 829.702 103.477 826.283 103C825.835 104.439 825.257 105.089 823.729 106H816.577C815.263 105.018 814.737 104.341 814.022 103C811.114 103.19 809.45 103.219 806.359 103C804.383 102.126 803.662 101.307 802.783 99.5C802.781 99.4865 802.779 99.4731 802.777 99.4597V100C802.365 101.429 801.941 102.092 800.777 103C797.807 103.331 796.124 103.477 792.777 103C792.339 104.439 791.773 105.089 790.277 106H783.277C781.992 105.018 781.477 104.341 780.777 103C777.931 103.19 776.302 103.219 773.277 103C771.762 102.315 771 101.665 770.328 100.546C769.958 101.615 769.504 102.216 768.5 103C765.53 103.331 763.847 103.477 760.5 103C760.062 104.439 759.496 105.089 758 106H751C749.715 105.018 749.2 104.341 748.5 103C745.654 103.19 744.025 103.219 741 103C739.066 102.126 738.36 101.307 737.5 99.5C737.128 96.965 737.132 95.5325 737.5 93C738.374 91.1859 739.19 90.3361 741 89Z" fill="#EE1D23"/>
<path d="M748.5 80C747.761 79.5709 747.34 79.4083 746.5 80C745.957 82.7694 746.007 84.2988 746.5 87C747.327 87.7613 747.77 87.8668 748.5 87C749.254 84.4294 749.318 82.9115 748.5 80Z" fill="#EE1D23"/>
<path d="M754.888 80.3852C754.15 79.9561 753.728 79.7935 752.888 80.3852C752.346 83.1546 752.396 84.684 752.888 87.3852C753.715 88.1465 754.159 88.252 754.888 87.3852C755.642 84.8146 755.706 83.2967 754.888 80.3852Z" fill="#EE1D23"/>
<path d="M761.277 80.7704C760.538 80.3413 760.117 80.1787 759.277 80.7704C758.734 83.5398 758.784 85.0692 759.277 87.7704C760.104 88.5317 760.547 88.6372 761.277 87.7704C762.031 85.1998 762.095 83.6819 761.277 80.7704Z" fill="#EE1D23"/>
<path d="M771.888 80.3852C771.15 79.9561 770.728 79.7935 769.888 80.3852C769.346 83.1546 769.396 84.684 769.888 87.3852C770.715 88.1465 771.159 88.252 771.888 87.3852C772.642 84.8146 772.706 83.2967 771.888 80.3852Z" fill="#EE1D23"/>
<path d="M781.888 79.3852C781.15 78.9561 780.728 78.7935 779.888 79.3852C779.346 82.1546 779.396 83.684 779.888 86.3852C780.715 87.1465 781.159 87.252 781.888 86.3852C782.642 83.8146 782.706 82.2967 781.888 79.3852Z" fill="#EE1D23"/>
<path d="M787.888 80.3852C787.15 79.9561 786.728 79.7935 785.888 80.3852C785.346 83.1546 785.396 84.684 785.888 87.3852C786.715 88.1465 787.159 88.252 787.888 87.3852C788.642 84.8146 788.706 83.2967 787.888 80.3852Z" fill="#EE1D23"/>
<path d="M794.888 80.3852C794.15 79.9561 793.728 79.7935 792.888 80.3852C792.346 83.1546 792.396 84.684 792.888 87.3852C793.715 88.1465 794.159 88.252 794.888 87.3852C795.642 84.8146 795.706 83.2967 794.888 80.3852Z" fill="#EE1D23"/>
<path d="M804.888 79.3852C804.15 78.9561 803.728 78.7935 802.888 79.3852C802.346 82.1546 802.396 83.684 802.888 86.3852C803.715 87.1465 804.159 87.252 804.888 86.3852C805.642 83.8146 805.706 82.2967 804.888 79.3852Z" fill="#EE1D23"/>
<path d="M813.888 80.3852C813.15 79.9561 812.728 79.7935 811.888 80.3852C811.346 83.1546 811.396 84.684 811.888 87.3852C812.715 88.1465 813.159 88.252 813.888 87.3852C814.642 84.8146 814.706 83.2967 813.888 80.3852Z" fill="#EE1D23"/>
<path d="M820.888 80.3852C820.15 79.9561 819.728 79.7935 818.888 80.3852C818.346 83.1546 818.396 84.684 818.888 87.3852C819.715 88.1465 820.159 88.252 820.888 87.3852C821.642 84.8146 821.706 83.2967 820.888 80.3852Z" fill="#EE1D23"/>
<path d="M827.888 80.3852C827.15 79.9561 826.728 79.7935 825.888 80.3852C825.346 83.1546 825.396 84.684 825.888 87.3852C826.715 88.1465 827.159 88.252 827.888 87.3852C828.642 84.8146 828.706 83.2967 827.888 80.3852Z" fill="#EE1D23"/>
</svg>
